{"title":"NAYAKUDU (1987) - teluguppls","uid":6330956,"size":720322560,"categoryP":"video","categoryS":"movies","magnet":"?xt=urn:btih:9d7fc415ded5541496b81e33066c7b1850d743ea&amp;dn=NAYAKUDU+%281987%29+-+teluguppls&amp;tr=udp%3A%2F%2Ftracker.openbittorrent.com%3A80&amp;tr=udp%3A%2F%2Fopen.demonii.com%3A1337&amp;tr=udp%3A%2F%2Ftracker.coppersurfer.tk%3A6969&amp;tr=udp%3A%2F%2Fexodus.desync.com%3A6969","seeders":1,"leechers":1,"uploader":"n1212","files":1,"time":1303282343,"description":"NAYAKUDU (1987) 1CD DVDRIP TELUGU MOVIE\n\n\nFOR SCREENSHOTS VISIT &lt;a href=&quot;\nhttp://teluguppls.blogspot.com/2010/11/nayakudu-1987-movie-torrent.html&quot; rel=&quot;nofollow&quot; target=&quot;_NEW&quot;&gt;\nhttp://teluguppls.blogspot.com/2010/11/nayakudu-1987-movie-torrent.html&lt;/a&gt;\n\n\n\nGeneral\n\nFormat                           : AVI\nFile size                        : 687 MiB\nDuration                         : 2h 2mn\nOverall bit rate                 : 787 Kbps\nWriting application              : VirtualDubMod 1.5.10.2 (build 2540/release)\nWriting library                  : VirtualDubMod build 2540/release\n\n\nVideo\n\nFormat                           : MPEG-4 Visual\nFormat profile                   : Advanced Simple@L5\nCodec ID                         : XVID\nDuration                         : 2h 2mn\nBit rate                         : 692 Kbps\nWidth                            : 544 pixels\nHeight                           : 416 pixels\nDisplay aspect ratio             : 4:3\nFrame rate                       : 23.976 fps\nChroma subsampling               : 4:2:0\nBit depth                        : 8 bits\nCompression mode                 : Lossy\nBits/(Pixel*Frame)               : 0.128\nStream size                      : 604 MiB (88%)\nWriting library                  : XviD 1.2.1 (UTC 2008-12-04)\n\n\nAudio\n\nFormat                           : MPEG Audio\nCodec ID/Hint                    : MP3\nDuration                         : 2h 1mn\nBit rate mode                    : Variable\nBit rate                         : 85.1 Kbps\nNominal bit rate                 : 96.0 Kbps\nChannel(s)                       : 2 channels\nSampling rate                    : 32.0 KHz\nCompression mode                 : Lossy\nStream size                      : 74.0 MiB (11%)\n\n\n\n\n\nPost a comment.................","torrent":{"xt":"urn:btih:9d7fc415ded5541496b81e33066c7b1850d743ea","amp;dn":"NAYAKUDU+%281987%29+-+teluguppls","amp;tr":["udp%3A%2F%2Ftracker.openbittorrent.com%3A80","udp%3A%2F%2Fopen.demonii.com%3A1337","udp%3A%2F%2Ftracker.coppersurfer.tk%3A6969","udp%3A%2F%2Fexodus.desync.com%3A6969"],"infoHash":"9d7fc415ded5541496b81e33066c7b1850d743ea","infoHashBuffer":{"type":"Buffer","data":[157,127,196,21,222,213,84,20,150,184,30,51,6,108,123,24,80,215,67,234]},"announce":[],"urlList":[]}}